PathFileType	4	(X/Y/Z)	C:/Users/opensim2020/Desktop/walking_exp_matlab/subject03_walking11_straight_04.trc	
DataRate	CameraRate	NumFrames	NumMarkers	Units	OrigDataRate	OrigDataStartFrame	OrigNumFrames	
100.00	100.00	4	46	mm	100.00	3835	350	
Frame#	Time	LFHD			RFHD			LBHD			RBHD			C7			T10			CLAV			STRN			RBAK			LSHO			LUPA			LELB			LFRM			LWRA			LWRB			LFIN			RSHO			RUPA			RELB			RFRM			RWRA			RWRB			RFIN			LASI			RASI			LPSI			RPSI			LTHI			LKNE			LTIB			LANK			LHEE			LTOE			RTHI			RKNE			RTIB			RANK			RHEE			RTOE			*39			*40			*41			*42			*43			*44			*45			
		X1	Y1	Z1	X2	Y2	Z2	X3	Y3	Z3	X4	Y4	Z4	X5	Y5	Z5	X6	Y6	Z6	X7	Y7	Z7	X8	Y8	Z8	X9	Y9	Z9	X10	Y10	Z10	X11	Y11	Z11	X12	Y12	Z12	X13	Y13	Z13	X14	Y14	Z14	X15	Y15	Z15	X16	Y16	Z16	X17	Y17	Z17	X18	Y18	Z18	X19	Y19	Z19	X20	Y20	Z20	X21	Y21	Z21	X22	Y22	Z22	X23	Y23	Z23	X24	Y24	Z24	X25	Y25	Z25	X26	Y26	Z26	X27	Y27	Z27	X28	Y28	Z28	X29	Y29	Z29	X30	Y30	Z30	X31	Y31	Z31	X32	Y32	Z32	X33	Y33	Z33	X34	Y34	Z34	X35	Y35	Z35	X36	Y36	Z36	X37	Y37	Z37	X38	Y38	Z38	X39	Y39	Z39	X40	Y40	Z40	X41	Y41	Z41	X42	Y42	Z42	X43	Y43	Z43	X44	Y44	Z44	X45	Y45	Z45	X46	Y46	Z46	

88	0.870	-960.57776	476.78079	1610.54480	-1092.37769	492.46344	1616.03064	-949.41608	608.53027	1580.76514	-1079.95422	618.77917	1585.07739	-1008.53168	658.76166	1419.38416	-1012.67273	701.94318	1105.60010	-1015.78094	540.89551	1337.95654	-1009.95917	501.19531	1172.76123	-1102.15894	722.20752	1243.48975	-859.13379	576.41071	1376.75024	-790.67944	568.50598	1181.03564	-783.38214	552.09845	1058.03552	-790.33142	514.68976	933.42426	-826.83344	488.55374	818.24988	-772.69183	505.41830	820.30792	-788.59387	486.15048	737.55499	-1172.78589	594.54187	1363.45239	-1245.65051	612.60632	1141.77747	-1259.18335	603.89948	1029.04126	-1260.22046	591.75903	892.69495	-1225.87073	562.22296	796.90302	-1267.58838	596.37219	792.11804	-1255.35779	577.12024	719.41925	-894.28925	539.63849	936.55750	-1132.58643	530.82489	942.47955	-950.57446	700.59393	960.36163	-1098.46729	693.26074	972.97498	-839.10663	608.53809	634.31354	-853.43384	612.23083	453.97293	-861.09644	762.81836	321.78369	-908.29053	904.44330	172.37978	-951.51331	950.68506	178.83705	-928.03107	837.31958	37.40877	-1170.76904	569.63275	648.33282	-1131.58142	538.42212	470.10419	-1130.92419	568.07605	282.27213	-1077.41614	575.17090	67.04990	-1023.92059	615.60870	35.35928	-1070.76477	432.05341	32.02267	-1000.05103	555.46918	1684.32092																		 
89	0.880	-961.18835	469.27698	1610.61145	-1093.01379	484.78461	1616.27246	-950.33093	601.04254	1580.46106	-1080.88928	611.01563	1584.92493	-1009.96985	650.97681	1419.30127	-1014.04755	694.21533	1105.57861	-1016.69836	533.06903	1337.87732	-1010.74823	493.49927	1172.56226	-1104.11841	713.98279	1243.46765	-860.04785	569.38239	1376.29553	-791.64551	562.94586	1180.23987	-784.25134	547.46906	1057.13184	-790.87714	511.45245	932.04315	-826.84955	486.75626	816.48822	-772.73517	503.57059	818.91260	-788.29413	486.63623	735.76343	-1173.99060	585.78235	1363.31311	-1247.57483	602.60175	1141.78687	-1261.42493	593.06299	1029.16394	-1262.51147	579.75531	892.93903	-1227.97498	549.80042	797.32288	-1270.09607	583.44751	792.34741	-1257.93494	563.48956	719.85669	-895.12744	532.32739	936.12000	-1133.53662	522.82025	942.64270	-951.64130	693.16034	959.53125	-1099.61255	685.59381	973.15155	-839.18475	596.63928	633.72589	-853.20880	595.52759	453.15945	-861.62213	747.23157	323.27579	-908.95502	891.05902	176.48032	-953.46051	937.04919	182.64163	-924.29498	824.50372	40.99804	-1171.48547	563.26239	648.88647	-1132.32739	534.05750	469.86816	-1131.42444	565.70770	282.16779	-1077.34680	575.11456	67.05723	-1023.95099	615.58588	35.47921	-1070.70337	431.96771	31.88330	-1000.21149	547.53027	1684.05554																		 
90	0.890	-961.74536	461.83054	1610.72583	-1093.60339	477.02744	1616.44128	-951.24518	593.45184	1580.15332	-1081.70081	603.13379	1584.69189	-1011.36249	643.18817	1419.30957	-1015.39008	686.63000	1105.54260	-1017.50122	525.37592	1337.76709	-1011.40472	485.99316	1172.34790	-1106.01270	705.95923	1243.45935	-860.83142	562.34155	1375.80688	-792.50647	557.63483	1179.39514	-784.95062	543.07483	1056.21790	-791.33063	508.34991	930.67670	-826.61523	484.69324	815.09436	-772.75922	501.73621	817.53937	-788.12512	486.52570	733.92419	-1175.09717	577.07562	1363.11829	-1249.43103	592.47919	1141.69617	-1263.61719	582.04565	1029.22339	-1264.79956	567.57251	893.09851	-1230.16443	537.36060	797.54327	-1272.54102	570.38867	792.53888	-1260.50732	549.66577	720.27521	-895.87579	525.34100	935.71362	-1134.38391	515.06323	942.74896	-952.65686	685.90045	958.63513	-1100.84888	678.10730	973.16779	-839.77081	584.42517	633.36810	-853.11847	578.56244	452.81583	-862.43890	731.56885	325.11444	-909.93036	876.71362	179.72894	-954.94177	922.68829	185.43649	-921.16394	809.86481	44.29081	-1172.18640	556.97437	648.85645	-1133.04370	529.69922	469.61523	-1131.80066	563.22339	281.99911	-1077.27612	575.08258	67.15405	-1023.98303	615.54480	35.65035	-1070.60608	431.85828	31.76800	-1001.27576	541.62378	1684.58142																		 
91	0.900	-962.21570	454.32419	1610.69531	-1094.10242	469.28909	1616.58533	-952.01721	585.92865	1579.84424	-1082.56628	595.40002	1584.55750	-1012.67279	635.47540	1419.37366	-1016.63806	679.21991	1105.59741	-1018.28992	517.82489	1337.56531	-1012.03271	478.59158	1172.13281	-1107.77612	698.06946	1243.58154	-861.57184	555.43915	1375.32776	-792.91052	552.61792	1178.65356	-785.52118	538.78363	1055.35413	-791.70667	505.34619	929.46344	-826.68549	483.67856	813.45715	-772.83820	500.09018	816.30908	-787.93225	486.07388	732.46246	-1176.15918	568.50854	1362.97961	-1251.19116	582.19281	1141.58398	-1265.72937	570.81482	1029.24036	-1267.01855	555.19415	893.19800	-1232.04004	525.04858	797.59259	-1274.99792	557.15631	792.70618	-1263.16492	535.75037	720.75232	-896.65283	518.51642	935.44824	-1135.17542	507.34445	942.77509	-953.70074	678.67670	957.77643	-1101.97876	670.42505	973.00647	-840.24255	571.97296	633.37988	-853.08862	561.87524	453.10248	-863.19977	715.75232	326.91986	-910.71429	861.23413	182.10986	-956.20038	907.39612	186.97672	-918.79327	793.77161	47.26102	-1172.78308	550.95410	648.73224	-1133.68262	525.33911	469.32050	-1132.19763	560.73450	281.90967	-1077.09399	575.10248	67.38786	-1023.97906	615.52246	35.87968	-1070.52332	431.80869	31.66580	-1001.70355	533.17175	1683.94568																		 
